<svg width="69" height="69" viewBox="0 0 69 69" fill="none" xmlns="http://www.w3.org/2000/svg">
<mask id="mask0_94_143" style="mask-type:luminance" maskUnits="userSpaceOnUse" x="0" y="0" width="69" height="69">
<path d="M68.17 0.415039H0V68.585H68.17V0.415039Z" fill="white"/>
</mask>
<g mask="url(#mask0_94_143)">
<path d="M56.97 57.385V58.229C56.975 59.6456 56.6848 61.0477 56.118 62.346C55.317 64.2002 53.9905 65.7792 52.3022 66.8879C50.6139 67.9967 48.6378 68.5867 46.618 68.585H10.357C8.99688 68.5854 7.65 68.3178 6.39332 67.7975C5.13664 67.2772 3.99478 66.5144 3.03298 65.5527C2.07117 64.591 1.30828 63.4492 0.78787 62.1926C0.267462 60.936 -0.000257928 59.5891 4.8539e-06 58.229V21.963C-0.00131303 20.6029 0.265746 19.256 0.785878 17.9993C1.30601 16.7427 2.06899 15.601 3.03111 14.6397C3.99323 13.6784 5.13557 12.9164 6.39268 12.3974C7.64979 11.8784 8.99696 11.6125 10.357 11.615H11.2V35.303L33.283 57.385H56.97Z" fill="url(#paint0_linear_94_143)"/>
<g style="mix-blend-mode:multiply" opacity="0.2">
<path d="M56.9703 57.385V58.229C56.9753 59.6456 56.6851 61.0477 56.1183 62.346H30.4903L7.0293 38.885V12.159C8.1014 11.7968 9.22568 11.613 10.3573 11.615H11.2003V35.303L33.2833 57.385H56.9703Z" fill="black"/>
</g>
<path d="M11.1973 11.6121V35.3011L33.2793 57.3891H56.9743V11.6121H11.1973Z" fill="url(#paint1_linear_94_143)"/>
<path d="M68.1702 8.35904V49.441C68.1698 51.0025 67.7095 52.5294 66.8468 53.831C65.9841 55.1326 64.7572 56.1513 63.3192 56.76C63.2019 56.8171 63.0806 56.8656 62.9562 56.905C62.081 57.2224 61.1572 57.3848 60.2262 57.385H33.2832L11.2002 35.303V8.35904C11.1999 7.31566 11.4053 6.28246 11.8045 5.31846C12.2036 4.35447 12.7889 3.47858 13.5267 2.74084C14.2645 2.00311 15.1405 1.41799 16.1045 1.01892C17.0686 0.619848 18.1018 0.414645 19.1452 0.41504H60.2262C61.2695 0.414777 62.3026 0.620075 63.2665 1.01921C64.2305 1.41834 65.1063 2.00348 65.844 2.7412C66.5818 3.47892 67.1669 4.35476 67.566 5.31869C67.9652 6.28262 68.1705 7.31575 68.1702 8.35904Z" fill="url(#paint2_linear_94_143)"/>
<g style="mix-blend-mode:screen" opacity="0.5">
<path d="M68.1701 8.35904V39.565C68.1701 39.565 68.1071 38.84 68.0251 37.579C67.9431 36.318 67.8171 34.514 67.7251 32.355C67.6331 30.196 67.5441 27.667 67.4891 24.955C67.4341 22.243 67.4171 19.369 67.3991 16.485C67.4081 15.043 67.4171 13.592 67.4261 12.177C67.4171 10.772 67.4891 9.32104 67.4711 8.04204C67.4518 6.83866 67.1372 5.65845 66.5551 4.60504C66.0247 3.64824 65.3023 2.8114 64.4331 2.14704C63.6755 1.58611 62.8253 1.16267 61.9211 0.89604C61.2037 0.698692 60.465 0.588894 59.7211 0.56904C58.4611 0.48804 57.7441 0.415039 57.7441 0.415039H60.2291C61.2722 0.41517 62.305 0.62076 63.2686 1.02007C64.2321 1.41937 65.1076 2.00458 65.845 2.74226C66.5824 3.47994 67.1673 4.35565 67.5663 5.31939C67.9652 6.28312 68.1704 7.316 68.1701 8.35904Z" fill="white"/>
</g>
<g style="mix-blend-mode:multiply" opacity="0.2">
<path d="M63.3195 56.76C63.2022 56.8171 63.0809 56.8656 62.9565 56.905C62.0813 57.2224 61.1575 57.3848 60.2265 57.385H56.9705V57.576L55.8705 57.603L48.3345 57.784L33.2805 58.02H33.0265L32.8365 57.83L21.7105 46.875C18.0195 43.202 14.3285 39.538 10.6645 35.838L10.4385 35.611V35.303C10.4565 27.403 10.5015 19.514 10.6285 11.615H11.1995V8.35904C11.1992 7.31566 11.4045 6.28246 11.8037 5.31846C12.2029 4.35447 12.7882 3.47858 13.526 2.74084C14.2638 2.00311 15.1398 1.41799 16.1038 1.01892C17.0679 0.619848 18.1011 0.414645 19.1445 0.41504H29.6285L23.3895 0.597041L20.2695 0.67804C19.2555 0.646689 18.2421 0.756746 17.2585 1.00504C15.3375 1.5477 13.7052 2.82043 12.7105 4.55104C12.2188 5.39801 11.9041 6.33593 11.7855 7.30804C11.7139 8.32213 11.7018 9.33955 11.7495 10.355C11.7585 10.772 11.7675 11.198 11.7675 11.615C11.8945 19.405 11.9395 27.195 11.9575 34.985C15.5768 38.577 19.1801 42.1867 22.7675 45.814L33.5555 56.76L48.3375 56.986L55.8735 57.168L56.9735 57.195L59.6405 57.267C60.2633 57.307 60.8884 57.2919 61.5085 57.222C62.1281 57.1391 62.7359 56.9841 63.3195 56.76Z" fill="black"/>
</g>
<g style="mix-blend-mode:multiply" opacity="0.2">
<path d="M42.469 68.585H10.357C8.99687 68.5854 7.65 68.3179 6.39331 67.7976C5.13663 67.2772 3.99477 66.5146 3.03297 65.5528C2.07117 64.5911 1.30827 63.4493 0.787865 62.1926C0.267458 60.9361 -0.000262589 59.5891 1.93263e-07 58.229V24.6021C1.93263e-07 24.6021 0.054999 25.8801 0.154999 28.1301C0.208999 30.3691 0.363001 33.571 0.436001 37.416C0.509001 41.261 0.636 45.7411 0.681 50.5471C0.699 52.9471 0.726 55.4361 0.744 57.9571C0.701981 60.3504 1.54444 62.6753 3.11 64.486C4.65104 66.2985 6.81606 67.4669 9.177 67.7601C9.449 67.8141 9.794 67.805 10.102 67.833L10.329 67.8421L10.374 67.851C10.374 67.842 10.41 67.851 10.41 67.851H11C11.626 67.86 12.242 67.8601 12.868 67.8691C14.101 67.8871 15.326 67.896 16.523 67.905C21.329 67.96 25.809 68.0871 29.654 68.1501C33.499 68.2131 36.701 68.3771 38.954 68.4401C41.191 68.5291 42.469 68.585 42.469 68.585Z" fill="black"/>
</g>
<g style="mix-blend-mode:screen" opacity="0.3">
<path d="M64.5429 8.35898V49.4409C64.5424 50.0096 64.429 50.5725 64.2095 51.0971C63.99 51.6216 63.6686 52.0974 63.2639 52.4969L16.0879 5.32198C16.4864 4.91575 16.9622 4.59333 17.4872 4.37368C18.0122 4.15403 18.5758 4.0416 19.1449 4.04298H60.2259C61.3703 4.04404 62.4676 4.49907 63.277 5.30822C64.0863 6.11737 64.5416 7.21454 64.5429 8.35898Z" fill="white"/>
</g>
</g>
<defs>
<linearGradient id="paint0_linear_94_143" x1="2.39274" y1="66.1922" x2="37.0875" y2="31.4975" gradientUnits="userSpaceOnUse">
<stop stop-color="#EE0979"/>
<stop offset="0.322" stop-color="#F32555"/>
<stop offset="1" stop-color="#FF6A00"/>
</linearGradient>
<linearGradient id="paint1_linear_94_143" x1="2.40805" y1="66.1783" x2="37.107" y2="31.4793" gradientUnits="userSpaceOnUse">
<stop stop-color="#EE0979"/>
<stop offset="0.322" stop-color="#F32555"/>
<stop offset="1" stop-color="#FF6A00"/>
</linearGradient>
<linearGradient id="paint2_linear_94_143" x1="23.7336" y1="44.8516" x2="77.6842" y2="-9.09895" gradientUnits="userSpaceOnUse">
<stop stop-color="#FCC400"/>
<stop offset="0.162" stop-color="#FBC000"/>
<stop offset="0.307" stop-color="#FBB500"/>
<stop offset="0.446" stop-color="#FBA300"/>
<stop offset="0.581" stop-color="#FA8900"/>
<stop offset="0.712" stop-color="#FA6800"/>
<stop offset="0.842" stop-color="#F93F00"/>
<stop offset="0.967" stop-color="#F81000"/>
<stop offset="1" stop-color="#F80300"/>
</linearGradient>
</defs>
</svg>
